:SAMPLES-PER-SECOND 30
:FULLY-SPECIFIED
:DEGREES
566
root  -0.0633391 31.5542 -47.2871 94.083 11.7568 94.1854
Spine  0.64431 -2.45701 -10.8
Spine1  0.292492 -1.30506 14.6904
Neck  3.97569e-016 0 -2.38542e-015
Head  3.21258 -2.01942 19.5816
R_Clavicle  0.350425 -19.0172 -0.270418
R_UpperArm  40.6037 -6.17571 24.84
R_Forearm  -10.7749 -46.8731 32.6764
R_Hand  -1.015 7.66483 -18.9877
L_Clavicle  -0.599661 18.3519 -3.60384
L_UpperArm  2.69638 -4.03292 4.75839
L_Forearm  -5.63734 30.7795 36.1673
L_Hand  -0.0694207 -2.45302 -2.76296
L_Thigh  -12.5963 -4.63566 -11.3732
L_Calf  1.88546 -1.83271 14.3076
L_Foot  8.3589 14.8976 13.8329
L_Toe0  0.505161 0.0342668 -6.13614
R_Thigh  14.0138 -9.669 -12.5759
R_Calf  -1.33757 -1.21742 -3.83383
R_Foot  1.85542 4.33797 -8.17397
R_Toe0  4.99767 -1.37853 -3.44325
567
root  -0.0023108 31.8124 -47.8766 91.9122 11.5639 94.1687
Spine  1.1508 -1.77338 -12.4072
Spine1  0.481837 -2.11356 12.7651
Neck  3.97569e-016 0 -2.38542e-015
Head  4.04165 -2.20547 23.1114
R_Clavicle  0.363366 -19.1643 0.0662695
R_UpperArm  41.8049 -5.78399 23.69
R_Forearm  -5.35296 -46.2703 32.4975
R_Hand  -1.15455 8.68674 -20.1369
L_Clavicle  -0.66466 19.3681 -3.64016
L_UpperArm  -9.03441 -0.0082287 10.956
L_Forearm  1.1106 37.8334 38.6816
L_Hand  -0.0434827 -1.91798 -1.52992
L_Thigh  -13.9068 -5.06663 -11.2815
L_Calf  1.17026 -2.20225 17.104
L_Foot  7.67047 15.5384 11.2666
L_Toe0  0.505161 0.0342799 -6.13615
R_Thigh  13.8696 -9.13598 -17.8448
R_Calf  -0.214444 0.0865928 0.20104
R_Foot  1.70661 3.62954 -8.24057
R_Toe0  7.32737 -2.42532 0.0254294
568
root  0.0681571 31.9225 -48.4861 89.9345 11.1428 94.5885
Spine  1.52927 -1.22455 -14.0594
Spine1  0.636371 -3.07476 10.7406
Neck  3.97569e-016 0 -2.38542e-015
Head  4.77914 -2.34544 26.4072
R_Clavicle  0.381444 -19.2837 0.64739
R_UpperArm  42.1039 -5.52012 22.4041
R_Forearm  -1.10854 -45.0109 30.9088
R_Hand  -1.27084 8.66895 -21.0013
L_Clavicle  -0.703466 19.9851 -3.63084
L_UpperArm  -17.7804 3.77801 17.0272
L_Forearm  9.27038 42.9297 43.1486
L_Hand  -0.00628685 -1.75375 -0.364521
L_Thigh  -15.5745 -5.81602 -10.5308
L_Calf  0.512998 -2.42017 18.8693
L_Foot  7.16572 16.1293 9.30595
L_Toe0  0.505161 0.0342961 -6.13615
R_Thigh  13.3773 -9.23449 -22.9787
R_Calf  -0.135835 1.83224 5.62608
R_Foot  1.6228 3.39101 -7.81743
R_Toe0  8.90896 -3.81274 6.75759
569
root  0.162654 31.9355 -49.1104 87.9022 10.8847 95.5392
Spine  1.9051 -0.725587 -15.2246
Spine1  0.930946 -4.38798 8.60707
Neck  3.97569e-016 0 -2.38542e-015
Head  5.43881 -2.5069 28.5742
R_Clavicle  0.392551 -19.1401 1.10234
R_UpperArm  41.1275 -5.4427 21.1642
R_Forearm  1.84444 -42.6217 27.5629
R_Hand  -1.1625 8.03857 -20.165
L_Clavicle  -0.725421 20.2691 -3.73065
L_UpperArm  -20.7054 7.46089 23.2201
L_Forearm  14.0283 44.7237 46.9843
L_Hand  0.0198662 -2.18958 0.428628
L_Thigh  -18.0596 -6.69824 -9.76645
L_Calf  0.274042 -2.77104 20.0486
L_Foot  6.87733 16.9393 7.7979
L_Toe0  0.505161 0.0343145 -6.13614
R_Thigh  12.5614 -10.2992 -28.1216
R_Calf  -0.738713 3.84538 12.0048
R_Foot  2.12799 6.52723 -3.70521
R_Toe0  6.5715 -2.87267 7.86974
570
root  0.269391 31.9354 -49.7987 85.2872 11.0813 96.525
Spine  2.38594 0.380448 -15.5686
Spine1  1.49831 -6.12249 7.07242
Neck  3.97569e-016 0 -2.38542e-015
Head  6.44855 -2.97333 28.6865
R_Clavicle  0.402937 -19.3248 1.41762
R_UpperArm  36.7039 -3.9478 19.7801
R_Forearm  6.34873 -39.2901 23.5645
R_Hand  -1.08329 7.81661 -19.5298
L_Clavicle  -0.81575 21.6637 -3.71147
L_UpperArm  -20.5366 9.13991 29.2408
L_Forearm  15.398 45.326 48.9686
L_Hand  0.0321452 -2.87928 0.957825
L_Thigh  -20.3662 -7.30942 -9.32549
L_Calf  -0.280666 -3.83784 21.2449
L_Foot  6.59412 17.9686 6.17627
L_Toe0  0.50516 0.0343344 -6.13614
R_Thigh  11.0236 -11.6402 -32.7396
R_Calf  -1.34355 6.27067 19.9203
R_Foot  2.91088 10.1969 3.20628
R_Toe0  1.6279 -0.522303 2.00198
571
root  0.354715 31.9433 -50.6815 82.1297 11.3892 96.6405
Spine  2.86719 3.35705 -14.986
Spine1  2.07678 -8.6377 6.65351
Neck  3.97569e-016 0 -2.38542e-015
Head  7.89519 -3.78486 26.6397
R_Clavicle  0.414165 -20.1138 1.72
R_UpperArm  27.255 -0.25008 17.6539
R_Forearm  13.8432 -35.4224 21.0416
R_Hand  -1.2541 8.11444 -20.8751
L_Clavicle  -0.948248 24.1915 -3.28778
L_UpperArm  -20.148 8.09509 33.4936
L_Forearm  16.0571 46.1319 50.4346
L_Hand  0.0386755 -3.60859 1.53362
L_Thigh  -22.82 -7.11157 -8.44795
L_Calf  -0.801855 -4.4352 22.4632
L_Foot  6.0895 18.873 4.11565
L_Toe0  0.505159 0.034355 -6.13613
R_Thigh  8.3722 -11.858 -35.2628
R_Calf  -0.126814 8.58796 27.917
R_Foot  2.75089 10.0881 9.8127
R_Toe0  -0.998943 -0.000138099 -8.0232
572
root  0.402027 31.9557 -51.8393 79.4714 11.0795 95.4311
Spine  3.15045 8.80877 -13.1986
Spine1  2.22385 -12.1647 6.36882
Neck  3.97569e-016 0 -2.38542e-015
Head  9.16151 -4.77783 23.592
R_Clavicle  0.418112 -20.2653 1.90952
R_UpperArm  19.6099 3.58081 14.5749
R_Forearm  19.1015 -32.6654 20.3057
R_Hand  -1.47451 8.22818 -22.5449
L_Clavicle  -0.990505 25.574 -2.80646
L_UpperArm  -20.5977 6.92222 34.8468
L_Forearm  17.5998 46.6612 52.0245
L_Hand  0.0390174 -4.27423 2.16201
L_Thigh  -24.975 -5.98692 -6.29904
L_Calf  -1.14416 -3.56981 23.5771
L_Foot  5.23448 19.2874 1.51534
L_Toe0  0.505158 0.0343753 -6.13611
R_Thigh  5.71831 -10.4845 -34.3099
R_Calf  1.52795 9.71357 32.109
R_Foot  2.1396 8.80257 13.3297
R_Toe0  -1.64614 -0.225314 -15.9179
573
root  0.416282 31.9623 -53.229 78.5176 9.78726 93.3807
Spine  3.30738 15.2679 -10.416
Spine1  1.90923 -15.4556 4.98063
Neck  3.97569e-016 0 -2.38542e-015
Head  9.90803 -6.2909 20.9161
R_Clavicle  0.412717 -18.2371 1.87278
R_UpperArm  16.7102 5.06278 11.2228
R_Forearm  21.5336 -30.2392 20.3956
R_Hand  -1.34113 7.80806 -21.5651
L_Clavicle  -0.907174 24.3347 -2.64061
L_UpperArm  -21.9013 8.34495 34.0945
L_Forearm  18.8833 45.8979 52.8187
L_Hand  0.0402445 -4.43956 2.5468
L_Thigh  -23.2232 -4.47041 -2.84288
L_Calf  -3.15792 -3.22077 24.785
L_Foot  4.05813 19.4896 -1.79704
L_Toe0  0.510214 0.0348286 -6.18534
R_Thigh  5.48201 -7.9348 -29.8771
R_Calf  1.01902 9.18228 30.3333
R_Foot  1.74861 7.9116 13.4871
R_Toe0  -1.80665 -0.277702 -17.5047
574
root  0.388935 31.9413 -54.7413 79.3401 7.92692 91.2934
Spine  3.47568 20.0071 -7.71345
Spine1  1.49004 -16.1156 3.05185
Neck  3.97569e-016 0 -2.38542e-015
Head  10.7275 -8.7589 18.6455
R_Clavicle  0.394039 -14.6389 1.73827
R_UpperArm  15.1706 4.96556 8.48277
R_Forearm  24.536 -25.8605 20.4669
R_Hand  -0.927216 7.25421 -18.1977
L_Clavicle  -0.773606 21.8833 -2.68967
L_UpperArm  -23.6126 12.0148 32.5133
L_Forearm  16.9777 43.8106 51.8888
L_Hand  0.0533666 -3.69914 2.45446
L_Thigh  -19.3639 -3.08687 1.38336
L_Calf  -4.52449 -3.50703 26.3531
L_Foot  2.50873 20.4631 -6.4905
L_Toe0  0.438788 0.0303492 -5.67543
R_Thigh  7.77876 -5.05012 -24.7926
R_Calf  -0.340108 8.34767 27.4741
R_Foot  1.2555 6.64808 12.6186
R_Toe0  -1.78853 -0.269443 -17.3236
575
root  0.305672 31.8723 -56.2541 80.8579 6.44089 89.9503
Spine  3.56838 20.7843 -5.79328
Spine1  1.23331 -12.7418 2.36397
Neck  3.97569e-016 0 -2.38542e-015
Head  12.1298 -11.4928 15.6385
R_Clavicle  0.372966 -11.7592 1.63322
R_UpperArm  14.7231 6.5207 6.59086
R_Forearm  26.6992 -20.7219 18.5877
R_Hand  -0.617563 7.01334 -15.5867
L_Clavicle  -0.689285 20.23 -2.87323
L_UpperArm  -25.1763 15.8655 30.5599
L_Forearm  11.2748 41.2687 49.4471
L_Hand  0.0650742 -2.25829 1.95492
L_Thigh  -16.1626 -2.1156 5.99609
L_Calf  -3.19409 -3.53429 26.3638
L_Foot  0.289334 19.7781 -12.4174
L_Toe0  0.486249 0.0170253 -4.1644
R_Thigh  9.80525 -2.79775 -20.1078
R_Calf  -1.03727 7.6022 24.8999
R_Foot  0.753691 5.33619 11.9385
R_Toe0  -1.78853 -0.267377 -17.3237
576
root  0.186288 31.7096 -57.6306 82.1055 6.10467 89.5377
Spine  3.50783 17.9004 -4.323
Spine1  1.32643 -6.56801 3.61963
Neck  3.97569e-016 0 -2.38542e-015
Head  13.7544 -12.9333 11.5468
R_Clavicle  0.352074 -10.7089 1.47845
R_UpperArm  15.068 11.0956 4.91482
R_Forearm  26.212 -16.8982 14.5914
R_Hand  -0.614448 6.8321 -15.4904
L_Clavicle  -0.651508 19.3324 -3.28271
L_UpperArm  -25.6809 18.8082 28.4114
L_Forearm  4.44219 38.7791 45.8963
L_Hand  0.0549155 -0.723178 1.22768
L_Thigh  -13.7927 -1.34548 9.75253
L_Calf  -0.59003 -3.00663 22.1169
L_Foot  -0.944679 12.1155 -12.8583
L_Toe0  1.16561 0.0306962 -5.71184
R_Thigh  10.6859 -1.64716 -16.1506
R_Calf  -0.727508 6.68008 21.7355
R_Foot  0.469344 4.59165 11.6721
R_Toe0  -1.78853 -0.265807 -17.3237
577
root  0.0785703 31.4597 -58.775 83.0955 6.98638 89.7131
Spine  3.21355 13.9762 -2.90302
Spine1  1.59957 -0.669839 5.86385
Neck  3.97569e-016 0 -2.38542e-015
Head  15.126 -12.6081 7.70539
R_Clavicle  0.329713 -10.7134 1.26308
R_UpperArm  12.6225 16.4094 2.50374
R_Forearm  25.6107 -13.8802 11.818
R_Hand  -0.778794 6.59463 -16.7987
L_Clavicle  -0.597987 18.2299 -3.89151
L_UpperArm  -22.7066 20.6227 26.817
L_Forearm  -1.10553 35.8178 41.6683
L_Hand  0.0189285 0.457147 0.385005
L_Thigh  -12.1025 -1.49028 11.2106
L_Calf  -0.671498 -2.00401 14.3773
L_Foot  0.18218 8.70909 -7.15614
L_Toe0  0.452835 0.0348534 -6.18248
R_Thigh  11.5463 -1.56361 -13.5448
R_Calf  -0.181319 5.65888 18.3309
R_Foot  0.322305 4.26412 11.8487
R_Toe0  -1.78853 -0.264691 -17.3238
578
root  0.00600709 31.193 -59.6636 84.3647 8.22923 89.6344
Spine  2.50055 11.7613 -2.26808
Spine1  1.49399 3.07825 8.02898
Neck  3.97569e-016 0 -2.38542e-015
Head  16.3422 -11.7939 5.55619
R_Clavicle  0.32688 -10.6362 1.24202
R_UpperArm  10.8897 19.296 -0.699334
R_Forearm  24.0239 -12.4931 10.578
R_Hand  -0.894866 6.5656 -17.7884
L_Clavicle  -0.536189 17.2113 -4.3377
L_UpperArm  -15.418 20.5981 26.2455
L_Forearm  -3.59836 32.339 38.2707
L_Hand  -0.0370159 1.10008 -0.566972
L_Thigh  -10.7189 -1.53955 11.0937
L_Calf  -3.59953 -0.649142 4.32574
L_Foot  1.18668 8.48758 -3.27597
L_Toe0  0.532023 0.03382 -6.20894
R_Thigh  12.9036 -1.60249 -12.1616
R_Calf  0.034787 4.81517 15.6196
R_Foot  0.178467 3.96507 12.1124
R_Toe0  -1.78853 -0.263986 -17.3238
579
root  -0.048899 31.0061 -60.3447 86.1301 8.89416 89.0408
Spine  1.44011 11.6048 -3.39075
Spine1  0.963535 4.81976 9.84815
Neck  3.97569e-016 0 -2.38542e-015
Head  17.2749 -11.6134 5.44016
R_Clavicle  0.346148 -10.451 1.43583
R_UpperArm  10.9688 18.9492 -3.20839
R_Forearm  22.1531 -12.7774 10.8308
R_Hand  -0.950288 6.66651 -18.2777
L_Clavicle  -0.514423 16.8989 -4.29322
L_UpperArm  -8.37113 18.4878 25.735
L_Forearm  -0.80319 30.5242 36.81
L_Hand  -0.0939342 1.04619 -1.54754
L_Thigh  -9.27698 -1.17469 9.77154
L_Calf  -7.53558 0.6248 -4.98742
L_Foot  1.98691 9.97321 -1.56835
L_Toe0  0.321546 0.0362806 -5.52266
R_Thigh  14.2296 -1.03091 -11.2486
R_Calf  0.454001 4.36335 14.2313
R_Foot  0.107049 3.75346 11.9313
R_Toe0  -1.78853 -0.26365 -17.3238
